<svg xmlns="http://www.w3.org/2000/svg" viewBox="0 0 331 351.3"><defs><style>.cls-1{fill:#ebebeb;}.cls-1,.cls-2,.cls-3{fill-rule:evenodd;}.cls-2{fill:#c5c5c5;}.cls-3{fill:#a3a3a3;}</style></defs><g id="图层_2" data-name="图层 2"><g id="图层_1-2" data-name="图层 1"><g id="画板-2"><path id="椭圆" class="cls-1" d="M0,185.8A165.5,165.5,0,1,1,165.5,351.3,165.5,165.5,0,0,1,0,185.8Z"/><path id="椭圆-2-相交-2" class="cls-2" d="M49,303.41A165.28,165.28,0,0,1,4,222.47V203.59s96.81,9.75,137-27.72S162.22,1.61,211.43,0c48.23-1.55,108.42,79.17,118.91,170.32.35,6.51.58,11.85.58,15.46a165.42,165.42,0,0,1-80.68,142.14Z"/><path id="椭圆-2-相交" class="cls-3" d="M328.07,217A165.52,165.52,0,0,1,44.63,298.84c74.51,3.32,120.6-46.88,157.22-86.76,21.29-23.19,39.38-42.88,58-46.56C290.65,159.44,313.29,184.42,328.07,217Z"/></g></g></g></svg>