<?xml version="1.0" encoding="utf-8"?>
<!-- Generator: Adobe Illustrator 19.0.0, SVG Export Plug-In . SVG Version: 6.00 Build 0)  -->
<svg version="1.1" id="图层_1" xmlns="http://www.w3.org/2000/svg" xmlns:xlink="http://www.w3.org/1999/xlink" x="0px" y="0px"
	 viewBox="-503 217 128 128" style="enable-background:new -503 217 128 128;" xml:space="preserve">
<style type="text/css">
	.st0{fill:#FFFFFF;}
</style>
<title>music-block-icon</title>
<path class="st0" d="M-477.4,323.2c-13.9,0-25.1-11.6-25.1-25.9c0-14,10.8-25.5,24.3-25.9c0.6-11,9.5-19.7,20.3-19.7
	c1.5,0,3.1,0.2,4.5,0.5c6.3-10,17.2-16.7,29.6-16.7c19.4,0,35.1,16.2,35.1,36.3c0,0.9,0,1.8-0.1,2.7c7.8,4.4,13.1,12.9,13.1,22.7
	c0,14.3-11.2,25.9-25.1,25.9H-477.4z M-433.5,305.2c-10.3-46.1-8.4-33.1-0.6-31c7.8,2.1,19.7-10,7.7-8.1c-12,1.9-22.9-20.1-18.5,5.8
	c3.6,20.9,5.7,25.7,3.9,25.7c-0.6-0.3-1.3-0.5-2-0.6c-1.3-0.3-2.6-0.5-4-0.5c-6.5,0-10.9,3.9-10,8.7c0.9,4.8,6.9,8.7,13.4,8.7
	C-437,313.9-432.5,310.1-433.5,305.2L-433.5,305.2z"/>
</svg>
