<?xml version="1.0" encoding="utf-8"?>
<svg version="1.1" id="图层_1" xmlns="http://www.w3.org/2000/svg" xmlns:xlink="http://www.w3.org/1999/xlink" x="0px" y="0px"
	 viewBox="0 0 128 128" style="enable-background:new 0 0 128 128;" xml:space="preserve">
<g>
	<g>
		<rect x="0.3" y="40.1" style="fill:#0A0906;" width="127.7" height="33.9"/>
	</g>
	<rect x="35.5" y="74" style="fill:#292625;" width="56.9" height="19.8"/>
	<g>
		<circle style="fill:#222021;" cx="20" cy="57.1" r="17"/>
		<circle style="fill:#515051;" cx="20" cy="57.1" r="15"/>
		<circle style="fill:#282728;" cx="20" cy="57.1" r="6.5"/>
		<ellipse style="fill:#E2E0E1;" cx="16.1" cy="54.5" rx="2.7" ry="3.9"/>
	</g>
	<path style="fill:#FEFEFE;" d="M119.6,53.2c-1.3,0.2-2.7,0.9-4,1.9c-1.3-1.1-2.7-1.7-4-1.9c1.1-0.9,2.5-1.4,4-1.4
		C117.2,51.8,118.6,52.3,119.6,53.2z M109.9,57.5c0-1.6,0.6-3.1,1.7-4.2c0.5,0.5,1.1,1,1.7,1.5c0.4,0.3,0.9,0.7,1.4,1.2
		c-1.5,1.7-2.6,3.7-3,5.9C110.6,60.7,109.9,59.2,109.9,57.5z M111.7,61.9c1.2-1.9,2.5-3.6,3.9-5.1c1.5,1.5,2.8,3.1,3.9,5.1
		c-1.1,0.9-2.4,1.4-3.9,1.4C114.2,63.3,112.8,62.7,111.7,61.9z M119.6,61.8c-0.5-2.2-1.5-4.2-3-5.9c0.5-0.4,1-0.8,1.4-1.2
		c0.7-0.5,1.3-1,1.8-1.5c1,1.1,1.7,2.6,1.7,4.2C121.4,59.2,120.7,60.7,119.6,61.8z"/>
	<rect y="83.9" style="fill:#322E2D;" width="128" height="9"/>
</g>
</svg>
