<?xml version="1.0" encoding="utf-8"?>
<svg version="1.1" id="图层_1" xmlns="http://www.w3.org/2000/svg" xmlns:xlink="http://www.w3.org/1999/xlink" x="0px" y="0px"
	 viewBox="-139 81 200 200" style="enable-background:new -139 81 200 200;" xml:space="preserve">
<style type="text/css">
	.st0{fill:#FFFFFF;}
</style>
<path class="st0" d="M20.4,163.2v83.2H-98.4v-17.3c0-11.3,6.4-21.5,16.4-26.6l21.3-10.6c6-3,9.9-9.2,9.9-16v-18.7l-8.2,4.1
	c-2.3,1.2-4,3.3-4.7,5.8l-4.4,17.6c-0.3,1.4-1.3,2.5-2.7,3.1l-11,4.4c-1.1,0.4-2.4,0.4-3.5-0.1l-22.4-9.9c-1.6-0.7-2.6-2.3-2.6-4.1
	v-58.8c0-2.4,0.9-4.6,2.6-6.3l3.3-3.3l-5.3-10.6c-0.4-0.9-0.7-1.8-0.7-2.8c0-2.5,2-4.5,4.5-4.5h55C-11.5,91.8,20.4,123.8,20.4,163.2
	z M27.9,252.3h-133.8c-2.5,0-4.5,2-4.5,4.5v8.9c0,2.5,2,4.5,4.5,4.5H27.9c2.5,0,4.5-2,4.5-4.5v-8.9
	C32.3,254.3,30.3,252.3,27.9,252.3z M-91,127.5c-4.1,0-7.4,3.3-7.4,7.4s3.3,7.4,7.4,7.4c4.1,0,7.4-3.3,7.4-7.4S-86.9,127.5-91,127.5
	z"/>
</svg>