<?xml version="1.0" encoding="utf-8"?>
<!-- Generator: Adobe Illustrator 22.1.0, SVG Export Plug-In . SVG Version: 6.00 Build 0)  -->
<svg version="1.1" id="图层_1" xmlns="http://www.w3.org/2000/svg" xmlns:xlink="http://www.w3.org/1999/xlink" x="0px" y="0px"
	 viewBox="0 0 18 18" style="enable-background:new 0 0 18 18;" xml:space="preserve">
<g>
	<path style="fill:#FFFFFF;" d="M16.1,7.6h-1.1v-3c0-0.8-0.7-1.5-1.5-1.5h-3V1.9C10.4,0.8,9.5,0,8.5,0C7.4,0,6.6,0.8,6.6,1.9V3h-3
		C2.7,3,2,3.7,2,4.6v2.9h1.1c1.1,0,2.1,0.9,2.1,2.1c0,1.1-0.9,2.1-2.1,2.1H2v2.9C2,15.3,2.7,16,3.5,16h2.9v-1.1
		c0-1.1,0.9-2.1,2.1-2.1c1.1,0,2.1,0.9,2.1,2.1V16h2.9c0.8,0,1.5-0.7,1.5-1.5v-3h1.1c1.1,0,1.9-0.8,1.9-1.9
		C18,8.4,17.2,7.6,16.1,7.6L16.1,7.6z M16.1,7.6"/>
</g>
</svg>
